# Blender v2.92.0 OBJ File: 'ConnorRobot.blend'
# www.blender.org
mtllib Suspension.mtl
v 1.022571 -0.059146 0.381155
v 1.022571 0.213831 0.381155
v 1.022571 -0.059146 -1.380424
v 1.022571 0.213831 -1.380424
v 1.201626 -0.059146 0.381155
v 1.201626 0.213831 0.381155
v 1.201626 -0.059146 -1.380424
v 1.201626 0.213831 -1.380424
v 1.022571 -0.011692 -1.128770
v 1.022571 0.042578 -0.877116
v 1.022571 0.068486 -0.625462
v 1.022571 0.068486 -0.373807
v 1.022571 0.042578 -0.122153
v 1.022571 -0.011692 0.129501
v 1.022571 0.261284 0.129501
v 1.022571 0.315555 -0.122153
v 1.022571 0.341462 -0.373808
v 1.022571 0.341462 -0.625462
v 1.022571 0.315555 -0.877116
v 1.022571 0.261284 -1.128770
v 1.201626 -0.011692 0.129501
v 1.201626 0.042578 -0.122153
v 1.201626 0.068486 -0.373808
v 1.201626 0.068486 -0.625462
v 1.201626 0.042578 -0.877116
v 1.201626 -0.011692 -1.128770
v 1.201626 0.261284 -1.128770
v 1.201626 0.315555 -0.877116
v 1.201626 0.341462 -0.625462
v 1.201626 0.341462 -0.373807
v 1.201626 0.315555 -0.122153
v 1.201626 0.261284 0.129501
vt 0.375000 0.214286
vt 0.625000 0.214286
vt 0.625000 0.250000
vt 0.375000 0.250000
vt 0.625000 0.500000
vt 0.375000 0.500000
vt 0.375000 0.714286
vt 0.625000 0.714286
vt 0.625000 0.750000
vt 0.375000 0.750000
vt 0.625000 1.000000
vt 0.375000 1.000000
vt 0.125000 0.714286
vt 0.125000 0.750000
vt 0.875000 0.714286
vt 0.875000 0.750000
vt 0.875000 0.500000
vt 0.875000 0.535714
vt 0.625000 0.535714
vt 0.875000 0.571429
vt 0.625000 0.571429
vt 0.875000 0.607143
vt 0.625000 0.607143
vt 0.875000 0.642857
vt 0.625000 0.642857
vt 0.875000 0.678571
vt 0.625000 0.678571
vt 0.125000 0.500000
vt 0.375000 0.535714
vt 0.125000 0.535714
vt 0.375000 0.571429
vt 0.125000 0.571429
vt 0.375000 0.607143
vt 0.125000 0.607143
vt 0.375000 0.642857
vt 0.125000 0.642857
vt 0.375000 0.678571
vt 0.125000 0.678571
vt 0.375000 0.000000
vt 0.625000 0.000000
vt 0.625000 0.035714
vt 0.375000 0.035714
vt 0.625000 0.071429
vt 0.375000 0.071429
vt 0.625000 0.107143
vt 0.375000 0.107143
vt 0.625000 0.142857
vt 0.375000 0.142857
vt 0.625000 0.178571
vt 0.375000 0.178571
vn -1.0000 0.0000 0.0000
vn 0.0000 0.0000 -1.0000
vn 1.0000 0.0000 0.0000
vn 0.0000 0.0000 1.0000
vn -0.0000 -0.9827 -0.1853
vn -0.0000 0.9827 0.1853
vn 0.0000 0.9827 -0.1853
vn 0.0000 0.9775 -0.2108
vn 0.0000 0.9947 -0.1024
vn 0.0000 1.0000 0.0000
vn -0.0000 0.9947 0.1024
vn -0.0000 0.9775 0.2108
vn 0.0000 -0.9827 0.1853
vn 0.0000 -0.9775 0.2108
vn 0.0000 -0.9947 0.1024
vn 0.0000 -1.0000 0.0000
vn -0.0000 -0.9947 -0.1024
vn -0.0000 -0.9775 -0.2108
usemtl None
s off
f 9/1/1 20/2/1 4/3/1 3/4/1
f 3/4/2 4/3/2 8/5/2 7/6/2
f 21/7/3 32/8/3 6/9/3 5/10/3
f 5/10/4 6/9/4 2/11/4 1/12/4
f 14/13/5 21/7/5 5/10/5 1/14/5
f 32/8/6 15/15/6 2/16/6 6/9/6
f 8/5/7 4/17/7 20/18/7 27/19/7
f 27/19/8 20/18/8 19/20/8 28/21/8
f 28/21/9 19/20/9 18/22/9 29/23/9
f 29/23/10 18/22/10 17/24/10 30/25/10
f 30/25/11 17/24/11 16/26/11 31/27/11
f 31/27/12 16/26/12 15/15/12 32/8/12
f 3/28/13 7/6/13 26/29/13 9/30/13
f 9/30/14 26/29/14 25/31/14 10/32/14
f 10/32/15 25/31/15 24/33/15 11/34/15
f 11/34/16 24/33/16 23/35/16 12/36/16
f 12/36/17 23/35/17 22/37/17 13/38/17
f 13/38/18 22/37/18 21/7/18 14/13/18
f 7/6/3 8/5/3 27/19/3 26/29/3
f 26/29/3 27/19/3 28/21/3 25/31/3
f 25/31/3 28/21/3 29/23/3 24/33/3
f 24/33/3 29/23/3 30/25/3 23/35/3
f 23/35/3 30/25/3 31/27/3 22/37/3
f 22/37/3 31/27/3 32/8/3 21/7/3
f 1/39/1 2/40/1 15/41/1 14/42/1
f 14/42/1 15/41/1 16/43/1 13/44/1
f 13/44/1 16/43/1 17/45/1 12/46/1
f 12/46/1 17/45/1 18/47/1 11/48/1
f 11/48/1 18/47/1 19/49/1 10/50/1
f 10/50/1 19/49/1 20/2/1 9/1/1
