# Blender v2.92.0 OBJ File: ''
# www.blender.org
mtllib UpperArm.mtl
o UpperLimb
v -0.161663 -0.192597 -2.585356
v -0.161663 -0.196432 -2.150166
v -0.161663 0.238759 -2.146329
v -0.161663 0.242594 -2.581521
v 0.165370 0.238759 -2.146329
v 0.165370 0.242594 -2.581521
v 0.165370 -0.196432 -2.150166
v 0.165370 -0.192597 -2.585356
v -0.080002 -0.063978 -2.147702
v -0.080002 -0.081604 -0.147780
v -0.080002 0.083477 -0.146325
v -0.080002 0.101103 -2.146247
v 0.083710 0.083477 -0.146325
v 0.083710 0.101103 -2.146247
v 0.083710 -0.081604 -0.147780
v 0.083710 -0.063978 -2.147702
vt 0.375000 0.000000
vt 0.625000 0.000000
vt 0.625000 0.250000
vt 0.375000 0.250000
vt 0.625000 0.500000
vt 0.375000 0.500000
vt 0.625000 0.750000
vt 0.375000 0.750000
vt 0.625000 1.000000
vt 0.375000 1.000000
vt 0.125000 0.500000
vt 0.125000 0.750000
vt 0.875000 0.500000
vt 0.875000 0.750000
vt 0.375000 0.000000
vt 0.625000 0.000000
vt 0.625000 0.250000
vt 0.375000 0.250000
vt 0.625000 0.500000
vt 0.375000 0.500000
vt 0.625000 0.750000
vt 0.375000 0.750000
vt 0.625000 1.000000
vt 0.375000 1.000000
vt 0.125000 0.500000
vt 0.125000 0.750000
vt 0.875000 0.500000
vt 0.875000 0.750000
vn -1.0000 0.0000 0.0000
vn 0.0000 1.0000 0.0088
vn 1.0000 -0.0000 0.0000
vn 0.0000 -1.0000 -0.0088
vn 0.0000 0.0088 -1.0000
vn 0.0000 -0.0088 1.0000
usemtl None.001
s 1
f 1/1/1 2/2/1 3/3/1 4/4/1
f 4/4/2 3/3/2 5/5/2 6/6/2
f 6/6/3 5/5/3 7/7/3 8/8/3
f 8/8/4 7/7/4 2/9/4 1/10/4
f 4/11/5 6/6/5 8/8/5 1/12/5
f 5/5/6 3/13/6 2/14/6 7/7/6
f 9/15/1 10/16/1 11/17/1 12/18/1
f 12/18/2 11/17/2 13/19/2 14/20/2
f 14/20/3 13/19/3 15/21/3 16/22/3
f 16/22/4 15/21/4 10/23/4 9/24/4
f 12/25/5 14/20/5 16/22/5 9/26/5
f 13/19/6 11/27/6 10/28/6 15/21/6
